# xmcd
#
# Track frame offsets: 
#        150
#        15797
#        30266
#        45154
#        59044
#        70183
#        84943
#        98678
#        114436
#        126740
#        142229
#        154674
#        167631
#        182762
#        202450
#        219031
#        235744
#
# Disc length: 3369 seconds
#
# Revision: 0
# Processed by: cddbd v1.5.2PL0 Copyright (c) Steve Scherf et al.
# Submitted via: ExactAudioCopyFreeDBPlugin 1.0
#
DISCID=e00d2711
DTITLE=Various Artist - CMAA Independents' Day CD 2
DYEAR=2010
DGENRE=Country
TTITLE0=Jetty Road - Million Miles
TTITLE1=Harmony James - Good Enough
TTITLE2=Bob Corbett and The Roo Grass Band - Mandolin
TTITLE3=Kristy Cox - That's Where The Faith Comes In
TTITLE4=Davidson Brothers - Born To Play
TTITLE5=Tracy Killeen - Metrosexual Craze
TTITLE6=Kevin Bennett - Walking Home
TTITLE7=Aleyce Simmonds - The Keeper
TTITLE8=Nicki Gillis and Bob Howe - Speak To The Sky
TTITLE9=Megan Cooper - She Travels North
TTITLE10=Mark Wells - You're Still On My Mind
TTITLE11=Allan Caswell - Who Gets The Friends?
TTITLE12=Jayne Denham - Shake This Town
TTITLE13=The Pigs - Macho Moisturiser
TTITLE14=Kevin Bennett - Walking Home
TTITLE15=Arthur Blanch - How Can I Thank You?
TTITLE16=Teniellle - Better Than Leaving
EXTD=
EXTT0=
EXTT1=
EXTT2=
EXTT3=
EXTT4=
EXTT5=
EXTT6=
EXTT7=
EXTT8=
EXTT9=
EXTT10=
EXTT11=
EXTT12=
EXTT13=
EXTT14=
EXTT15=
EXTT16=
PLAYORDER=
